<?xml version="1.0" encoding="utf-8"?>
<!-- Generator: Adobe Illustrator 27.0.0, SVG Export Plug-In . SVG Version: 6.00 Build 0)  -->
<svg version="1.1" id="Layer_1" xmlns="http://www.w3.org/2000/svg" xmlns:xlink="http://www.w3.org/1999/xlink" x="0px" y="0px"
	 viewBox="0 0 500 500" style="enable-background:new 0 0 500 500;" xml:space="preserve">
<style type="text/css">
	.st0{fill:none;}
	.st1{fill:#D72841;}
	.st2{fill:#DFA52B;}
	.st3{fill:#68BBB8;}
	.st4{fill:#13AA91;}
	.st5{fill:#231F20;}
	.st6{font-family:'Futura-Medium';}
	.st7{font-size:33.6988px;}
</style>
<rect x="107.96" y="-55.69" class="st0" width="283.46" height="612.28"/>
<g>
	<g id="レイヤー_2_3_">
		<g id="レイヤー_1-2_2_">
			<polygon class="st1" points="244.3,88.87 244.3,127.99 217.77,137.18 217.77,98.11 			"/>
			<polygon class="st2" points="217.77,161.55 244.3,151.66 244.3,359.64 217.77,359.64 			"/>
			<polygon class="st3" points="288.5,95.3 288.5,359.64 262.02,359.64 262.02,82.93 			"/>
			<polygon class="st1" points="355.5,241.84 355.5,359.64 328.97,359.64 328.97,230.39 			"/>
			<polygon class="st4" points="443.96,280.04 443.96,359.64 417.43,359.64 417.43,268.48 			"/>
			<polygon class="st3" points="399.76,260.91 399.76,320.19 373.23,308.63 373.23,249.46 			"/>
			<polygon class="st3" points="170.33,205.42 170.33,359.58 143.85,359.58 143.85,216.39 			"/>
			<polygon class="st1" points="126.13,223.68 126.13,264.75 99.6,264.75 99.6,234.71 			"/>
			<polygon class="st4" points="81.93,293.34 81.93,359.64 55.4,359.64 55.4,304.14 			"/>
			<rect x="99.65" y="314.25" class="st2" width="25.07" height="45.39"/>
		</g>
	</g>
	<text transform="matrix(1 0 0 1 37.0327 418.3809)"><tspan x="0" y="0" class="st5 st6 st7">NAKAZAWA and OKOSHI</tspan><tspan x="25.55" y="40.88" class="st5 st6 st7">LABORATORY Keio SFC</tspan></text>
</g>
</svg>
